<svg width="104" height="76" viewBox="0 0 104 76" fill="none" xmlns="http://www.w3.org/2000/svg">
<path d="M46.8333 28.766V24.0932H56.1667V28.766H46.8333ZM41 23.217V17.8724C41 17.6193 41.0486 17.376 41.1458 17.1423C41.2431 16.9087 41.3889 16.714 41.5833 16.5582L50.3333 8.78964C50.4889 8.63388 50.6689 8.52173 50.8735 8.4532C51.0773 8.38544 51.2861 8.35156 51.5 8.35156C51.7139 8.35156 51.9231 8.38544 52.1277 8.4532C52.3314 8.52173 52.5111 8.63388 52.6667 8.78964L55 10.8632L41 23.217ZM42.75 28.766C42.2639 28.766 41.8509 28.5954 41.511 28.2543C41.1703 27.914 41 27.5004 41 27.0137V24.7941L45.6667 20.6469V28.766H42.75ZM57.3333 28.766V19.1867L52.3458 14.7475L55.875 11.6225L61.4167 16.5582C61.6111 16.7334 61.7569 16.9328 61.8542 17.1563C61.9514 17.3806 62 17.6193 62 17.8724V27.0137C62 27.5004 61.8297 27.914 61.489 28.2543C61.1491 28.5954 60.7361 28.766 60.25 28.766H57.3333Z" fill="#F0B317"/>
<path d="M30.0001 21.4163C30.0001 23.8681 30.5206 26.2959 31.5317 28.5611C32.5429 30.8263 34.0249 32.8845 35.8933 34.6182C37.7617 36.3519 39.9797 37.7272 42.4209 38.6655C44.862 39.6037 47.4784 40.0867 50.1207 40.0867L50.1207 36.3526C48.0069 36.3526 45.9138 35.9663 43.9608 35.2156C42.0079 34.465 40.2335 33.3648 38.7388 31.9778C37.2441 30.5909 36.0584 28.9443 35.2495 27.1322C34.4406 25.32 34.0243 23.3777 34.0243 21.4163L30.0001 21.4163Z" fill="#2F42ED"/>
<path d="M53.0797 40.0864C55.7219 40.0864 58.3383 39.6035 60.7795 38.6652C63.2206 37.7269 65.4387 36.3517 67.307 34.618C69.1754 32.8843 70.6575 30.8261 71.6686 28.5609C72.6798 26.2957 73.2002 23.8678 73.2002 21.416L69.1761 21.416C69.1761 23.3775 68.7597 25.3197 67.9508 27.1319C67.1419 28.9441 65.9562 30.5906 64.4616 31.9776C62.9669 33.3646 61.1924 34.4648 59.2395 35.2154C57.2866 35.966 55.1935 36.3523 53.0797 36.3523L53.0797 40.0864Z" fill="#2F42ED"/>
<path d="M50.1205 0.000254769C47.4783 0.000254876 44.8619 0.48318 42.4207 1.42145C39.9796 2.35973 37.7615 3.73498 35.8932 5.46869C34.0248 7.2024 32.5427 9.26061 31.5316 11.5258C30.5204 13.791 30 16.2188 30 18.6707L34.0241 18.6707C34.0241 16.7092 34.4405 14.7669 35.2494 12.9548C36.0583 11.1426 37.2439 9.49605 38.7386 8.10908C40.2333 6.72212 42.0078 5.62192 43.9607 4.8713C45.9136 4.12067 48.0067 3.73434 50.1205 3.73434L50.1205 0.000254769Z" fill="#2F42ED"/>
<path d="M73.2001 18.6704C73.2001 16.2186 72.6796 13.7907 71.6685 11.5255C70.6573 9.26035 69.1752 7.20214 67.3069 5.46843C65.4385 3.73473 63.2204 2.35948 60.7793 1.4212C58.3382 0.482924 55.7218 -1.07173e-07 53.0795 0V3.73408C55.1933 3.73408 57.2864 4.12042 59.2394 4.87104C61.1923 5.62166 62.9667 6.72186 64.4614 8.10883C65.9561 9.49579 67.1418 11.1424 67.9507 12.9545C68.7596 14.7667 69.1759 16.7089 69.1759 18.6704H73.2001Z" fill="#2F42ED"/>
<path d="M1.44 70.065C1.44 71.379 2.124 71.793 3.168 71.793H10.242C11.106 71.793 11.736 71.541 11.736 70.605C11.736 69.669 11.106 69.417 10.242 69.417H4.392V66.285H9.396C10.17 66.285 10.782 66.069 10.782 65.151C10.782 64.233 10.17 64.017 9.396 64.017H4.392V61.209H10.098C10.962 61.209 11.592 60.957 11.592 60.021C11.592 59.085 10.962 58.833 10.098 58.833H3.168C2.124 58.833 1.44 59.247 1.44 60.561V70.065ZM15.0403 65.583C14.2303 65.583 13.5823 65.907 13.5823 66.825C13.5823 67.743 14.2303 68.067 15.0403 68.067H18.0103C18.8203 68.067 19.4683 67.743 19.4683 66.825C19.4683 65.907 18.8203 65.583 18.0103 65.583H15.0403ZM31.3103 70.551C31.3103 71.433 31.8863 72.027 32.7863 72.027C33.6863 72.027 34.2623 71.433 34.2623 70.551V61.317H37.0523C37.8983 61.317 38.5823 60.885 38.5823 60.075C38.5823 59.265 37.8983 58.833 37.0523 58.833H28.5203C27.6743 58.833 26.9903 59.265 26.9903 60.075C26.9903 60.885 27.6743 61.317 28.5203 61.317H31.3103V70.551ZM40.7057 70.551C40.7057 71.433 41.2817 72.027 42.1817 72.027C43.0817 72.027 43.6577 71.433 43.6577 70.551V66.753H46.5737C48.1937 66.753 48.6077 67.671 48.6077 69.939C48.6077 70.461 48.7337 72.027 50.3537 72.027C51.0377 72.027 51.7397 71.559 51.7397 70.875C51.7397 70.263 51.3437 69.705 51.3437 68.211C51.3437 66.897 51.0737 65.799 49.5617 65.583V65.547C50.9657 65.223 51.7937 63.837 51.7937 62.433C51.7937 60.759 50.8577 58.833 47.3477 58.833H42.4337C41.3897 58.833 40.7057 59.247 40.7057 60.561V70.551ZM43.6577 61.101H46.6997C47.9957 61.101 48.8417 61.461 48.8417 62.847C48.8417 64.305 47.7257 64.593 46.6097 64.593H43.6577V61.101ZM53.6695 69.597C53.5615 69.885 53.3815 70.407 53.3815 70.731C53.3815 71.523 53.9395 72.027 54.7495 72.027C55.4515 72.027 55.8655 71.793 56.0635 71.217L56.8375 69.057H61.5895L62.3455 71.217C62.5615 71.793 63.0295 72.027 63.6775 72.027C64.4335 72.027 65.0635 71.451 65.0635 70.731C65.0635 70.407 64.8835 69.885 64.7755 69.597L61.2115 59.679C60.8875 58.761 60.2935 58.599 59.6275 58.599H58.9255C58.2055 58.599 57.7375 58.833 57.4855 59.499L53.6695 69.597ZM60.9415 67.005H57.4855L59.2315 61.803H59.2675L60.9415 67.005ZM66.403 65.313C66.403 69.777 68.797 72.099 72.847 72.099C75.709 72.099 77.977 70.245 77.977 68.373C77.977 67.653 77.257 67.239 76.537 67.239C75.115 67.239 75.169 69.723 72.847 69.723C70.291 69.723 69.355 67.671 69.355 65.313C69.355 62.505 70.885 60.903 72.739 60.903C75.439 60.903 74.935 63.243 76.645 63.243C77.527 63.243 77.977 62.739 77.977 61.911C77.977 60.651 76.123 58.527 72.739 58.527C68.563 58.527 66.403 61.659 66.403 65.313ZM80.3472 70.551C80.3472 71.433 80.9232 72.027 81.8232 72.027C82.7232 72.027 83.2992 71.433 83.2992 70.551V67.617L84.9192 65.997L88.3212 71.253C88.7172 71.883 89.0412 72.027 89.6352 72.027C90.3372 72.027 91.1472 71.703 91.1472 70.605C91.1472 70.227 90.8592 69.849 90.5892 69.435L87.0072 63.981L90.0312 60.795C90.2832 60.543 90.5172 60.237 90.5172 59.787C90.5172 59.031 89.8152 58.599 89.1132 58.599C88.5912 58.599 88.2852 58.887 87.9432 59.247L83.2992 64.359V60.075C83.2992 59.193 82.7232 58.599 81.8232 58.599C80.9232 58.599 80.3472 59.193 80.3472 60.075V70.551ZM92.2915 69.597C92.1835 69.885 92.0035 70.407 92.0035 70.731C92.0035 71.523 92.5615 72.027 93.3715 72.027C94.0735 72.027 94.4875 71.793 94.6855 71.217L95.4595 69.057H100.211L100.967 71.217C101.183 71.793 101.651 72.027 102.299 72.027C103.055 72.027 103.685 71.451 103.685 70.731C103.685 70.407 103.505 69.885 103.397 69.597L99.8335 59.679C99.5095 58.761 98.9155 58.599 98.2495 58.599H97.5475C96.8275 58.599 96.3595 58.833 96.1075 59.499L92.2915 69.597ZM99.5635 67.005H96.1075L97.8535 61.803H97.8895L99.5635 67.005Z" fill="#2F42ED"/>
</svg>
