<svg width="144" height="34" viewBox="0 0 144 34" fill="none" xmlns="http://www.w3.org/2000/svg">
<path d="M14.2928 23.8V20.4275H20.8409V23.8H14.2928ZM10.2002 19.7952V15.938C10.2002 15.7553 10.2343 15.5797 10.3025 15.411C10.3707 15.2424 10.473 15.1019 10.6095 14.9895L16.7483 9.38282C16.8575 9.2704 16.9838 9.18946 17.1273 9.14C17.2703 9.0911 17.4168 9.06665 17.5669 9.06665C17.7169 9.06665 17.8637 9.0911 18.0072 9.14C18.1502 9.18946 18.2762 9.2704 18.3854 9.38282L20.0224 10.8793L10.2002 19.7952ZM11.428 23.8C11.0869 23.8 10.7972 23.6769 10.5587 23.4307C10.3197 23.1851 10.2002 22.8866 10.2002 22.5353V20.9334L13.4743 17.9404V23.8H11.428ZM21.6595 23.8V16.8865L18.1603 13.6827L20.6363 11.4274L24.5243 14.9895C24.6607 15.116 24.763 15.2599 24.8312 15.4212C24.8994 15.583 24.9335 15.7553 24.9335 15.938V22.5353C24.9335 22.8866 24.814 23.1851 24.575 23.4307C24.3366 23.6769 24.0468 23.8 23.7058 23.8H21.6595Z" fill="#F0B317"/>
<path d="M3.00019 18.6C3.00019 20.3859 3.35197 22.1544 4.03543 23.8044C4.7189 25.4545 5.72066 26.9537 6.98354 28.2166C8.24642 29.4795 9.74567 30.4813 11.3957 31.1647C13.0457 31.8482 14.8142 32.2 16.6002 32.2L16.6002 29.48C15.1714 29.48 13.7566 29.1985 12.4366 28.6518C11.1166 28.105 9.91717 27.3036 8.90687 26.2933C7.89657 25.283 7.09516 24.0836 6.54838 22.7635C6.00161 21.4435 5.72019 20.0287 5.72019 18.6L3.00019 18.6Z" fill="#2F42ED"/>
<path d="M18.6002 32.2C20.3862 32.2 22.1547 31.8482 23.8047 31.1648C25.4547 30.4813 26.954 29.4795 28.2168 28.2167C29.4797 26.9538 30.4815 25.4545 31.165 23.8045C31.8484 22.1545 32.2002 20.386 32.2002 18.6L29.4802 18.6C29.4802 20.0288 29.1988 21.4436 28.652 22.7636C28.1052 24.0836 27.3038 25.283 26.2935 26.2933C25.2832 27.3036 24.0838 28.105 22.7638 28.6518C21.4438 29.1986 20.029 29.48 18.6002 29.48L18.6002 32.2Z" fill="#2F42ED"/>
<path d="M16.6 2.99995C14.814 2.99995 13.0455 3.35172 11.3955 4.03519C9.74548 4.71865 8.24622 5.72042 6.98335 6.9833C5.72047 8.24618 4.7187 9.74543 4.03524 11.3955C3.35177 13.0455 3 14.814 3 16.6L5.72 16.6C5.72 15.1712 6.00142 13.7564 6.54819 12.4364C7.09496 11.1163 7.89638 9.91693 8.90668 8.90663C9.91698 7.89633 11.1164 7.09491 12.4364 6.54814C13.7564 6.00137 15.1712 5.71995 16.6 5.71995L16.6 2.99995Z" fill="#2F42ED"/>
<path d="M32.2 16.6C32.2 14.814 31.8482 13.0455 31.1648 11.3955C30.4813 9.74548 29.4795 8.24622 28.2167 6.98335C26.9538 5.72047 25.4545 4.7187 23.8045 4.03524C22.1545 3.35177 20.386 3 18.6 3L18.6 5.72C20.0288 5.72 21.4436 6.00142 22.7636 6.54819C24.0836 7.09496 25.283 7.89638 26.2933 8.90668C27.3036 9.91698 28.105 11.1164 28.6518 12.4364C29.1986 13.7564 29.48 15.1712 29.48 16.6H32.2Z" fill="#2F42ED"/>
<path d="M41.44 21.772C41.44 23.086 42.124 23.5 43.168 23.5H50.242C51.106 23.5 51.736 23.248 51.736 22.312C51.736 21.376 51.106 21.124 50.242 21.124H44.392V17.992H49.396C50.17 17.992 50.782 17.776 50.782 16.858C50.782 15.94 50.17 15.724 49.396 15.724H44.392V12.916H50.098C50.962 12.916 51.592 12.664 51.592 11.728C51.592 10.792 50.962 10.54 50.098 10.54H43.168C42.124 10.54 41.44 10.954 41.44 12.268V21.772ZM55.0403 17.29C54.2303 17.29 53.5823 17.614 53.5823 18.532C53.5823 19.45 54.2303 19.774 55.0403 19.774H58.0103C58.8203 19.774 59.4683 19.45 59.4683 18.532C59.4683 17.614 58.8203 17.29 58.0103 17.29H55.0403ZM71.3103 22.258C71.3103 23.14 71.8863 23.734 72.7863 23.734C73.6863 23.734 74.2623 23.14 74.2623 22.258V13.024H77.0523C77.8983 13.024 78.5823 12.592 78.5823 11.782C78.5823 10.972 77.8983 10.54 77.0523 10.54H68.5203C67.6743 10.54 66.9903 10.972 66.9903 11.782C66.9903 12.592 67.6743 13.024 68.5203 13.024H71.3103V22.258ZM80.7057 22.258C80.7057 23.14 81.2817 23.734 82.1817 23.734C83.0817 23.734 83.6577 23.14 83.6577 22.258V18.46H86.5737C88.1937 18.46 88.6077 19.378 88.6077 21.646C88.6077 22.168 88.7337 23.734 90.3537 23.734C91.0377 23.734 91.7397 23.266 91.7397 22.582C91.7397 21.97 91.3437 21.412 91.3437 19.918C91.3437 18.604 91.0737 17.506 89.5617 17.29V17.254C90.9657 16.93 91.7937 15.544 91.7937 14.14C91.7937 12.466 90.8577 10.54 87.3477 10.54H82.4337C81.3897 10.54 80.7057 10.954 80.7057 12.268V22.258ZM83.6577 12.808H86.6997C87.9957 12.808 88.8417 13.168 88.8417 14.554C88.8417 16.012 87.7257 16.3 86.6097 16.3H83.6577V12.808ZM93.6695 21.304C93.5615 21.592 93.3815 22.114 93.3815 22.438C93.3815 23.23 93.9395 23.734 94.7495 23.734C95.4515 23.734 95.8655 23.5 96.0635 22.924L96.8375 20.764H101.59L102.346 22.924C102.562 23.5 103.03 23.734 103.678 23.734C104.434 23.734 105.064 23.158 105.064 22.438C105.064 22.114 104.884 21.592 104.776 21.304L101.212 11.386C100.888 10.468 100.294 10.306 99.6275 10.306H98.9255C98.2055 10.306 97.7375 10.54 97.4855 11.206L93.6695 21.304ZM100.942 18.712H97.4855L99.2315 13.51H99.2675L100.942 18.712ZM106.403 17.02C106.403 21.484 108.797 23.806 112.847 23.806C115.709 23.806 117.977 21.952 117.977 20.08C117.977 19.36 117.257 18.946 116.537 18.946C115.115 18.946 115.169 21.43 112.847 21.43C110.291 21.43 109.355 19.378 109.355 17.02C109.355 14.212 110.885 12.61 112.739 12.61C115.439 12.61 114.935 14.95 116.645 14.95C117.527 14.95 117.977 14.446 117.977 13.618C117.977 12.358 116.123 10.234 112.739 10.234C108.563 10.234 106.403 13.366 106.403 17.02ZM120.347 22.258C120.347 23.14 120.923 23.734 121.823 23.734C122.723 23.734 123.299 23.14 123.299 22.258V19.324L124.919 17.704L128.321 22.96C128.717 23.59 129.041 23.734 129.635 23.734C130.337 23.734 131.147 23.41 131.147 22.312C131.147 21.934 130.859 21.556 130.589 21.142L127.007 15.688L130.031 12.502C130.283 12.25 130.517 11.944 130.517 11.494C130.517 10.738 129.815 10.306 129.113 10.306C128.591 10.306 128.285 10.594 127.943 10.954L123.299 16.066V11.782C123.299 10.9 122.723 10.306 121.823 10.306C120.923 10.306 120.347 10.9 120.347 11.782V22.258ZM132.291 21.304C132.183 21.592 132.003 22.114 132.003 22.438C132.003 23.23 132.561 23.734 133.371 23.734C134.073 23.734 134.487 23.5 134.685 22.924L135.459 20.764H140.211L140.967 22.924C141.183 23.5 141.651 23.734 142.299 23.734C143.055 23.734 143.685 23.158 143.685 22.438C143.685 22.114 143.505 21.592 143.397 21.304L139.833 11.386C139.509 10.468 138.915 10.306 138.249 10.306H137.547C136.827 10.306 136.359 10.54 136.107 11.206L132.291 21.304ZM139.563 18.712H136.107L137.853 13.51H137.889L139.563 18.712Z" fill="#2F42ED"/>
</svg>
